<svg width="21" height="20" viewBox="0 0 21 20" fill="none" xmlns="http://www.w3.org/2000/svg">
<path fill-rule="evenodd" clip-rule="evenodd" d="M2.83335 13.8136V17.25H6.26973L17.7697 5.74998L14.3334 2.31361L2.83335 13.8136ZM14.3334 -1.52588e-05C13.9358 -1.52588e-05 13.6557 0.280673 13.6557 0.280673L1.19738 12.739C1.01765 12.9187 0.916687 13.1625 0.916687 13.4166V18.2083C0.916687 18.7376 1.34575 19.1667 1.87502 19.1667H6.66669C6.92085 19.1667 7.16461 19.0657 7.34433 18.886L19.8027 6.42763C20.1769 6.05338 20.1769 5.44659 19.8027 5.07234L15.011 0.280673C15.011 0.280673 14.731 -1.52588e-05 14.3334 -1.52588e-05Z" fill="black"/>
</svg>
