<svg width="19" height="17" viewBox="0 0 19 17" fill="none" xmlns="http://www.w3.org/2000/svg">
<path fill-rule="evenodd" clip-rule="evenodd" d="M0.833333 0.825745C1.29357 0.825745 1.66667 1.19884 1.66667 1.65908V5.82574H5.83333C6.29357 5.82574 6.66667 6.19884 6.66667 6.65908C6.66667 7.11932 6.29357 7.49241 5.83333 7.49241H0.833333C0.373096 7.49241 0 7.11932 0 6.65908V1.65908C0 1.19884 0.373096 0.825745 0.833333 0.825745Z" fill="black"/>
<path fill-rule="evenodd" clip-rule="evenodd" d="M4.12041 2.42687C6.74734 -0.187575 10.786 -0.753183 14.0305 1.04041C17.2788 2.8361 18.948 6.56358 18.1244 10.1826C17.3008 13.8017 14.1831 16.4398 10.4776 16.6531C6.77221 16.8664 3.37236 14.6033 2.13902 11.1027C1.98609 10.6686 2.214 10.1927 2.64809 10.0398C3.08217 9.88684 3.55805 10.1148 3.71098 10.5488C4.69765 13.3494 7.41753 15.1598 10.3819 14.9892C13.3462 14.8186 15.8404 12.7081 16.4993 9.81281C17.1581 6.91758 15.8228 3.93558 13.2242 2.49904C10.6256 1.06249 7.39012 1.5177 5.28876 3.61551C5.28281 3.62145 5.27677 3.6273 5.27065 3.63305L1.40398 7.26638C1.06858 7.58154 0.541201 7.56514 0.226042 7.22974C-0.0891181 6.89434 -0.0727107 6.36696 0.262689 6.0518L4.12041 2.42687Z" fill="black"/>
</svg>
