<svg width="48" height="39" viewBox="0 0 48 39" fill="none" xmlns="http://www.w3.org/2000/svg">
<g clip-path="url(#clip0_2_77)">
<path d="M48 4.6166C46.2341 5.39979 44.3359 5.92888 42.3441 6.16691C44.3772 4.94845 45.9389 3.01903 46.674 0.719849C44.771 1.84832 42.6636 2.6675 40.4203 3.10901C38.6241 1.19542 36.0648 0 33.2323 0C27.7939 0 23.3844 4.40809 23.3844 9.84532C23.3844 10.617 23.4715 11.3685 23.6395 12.0891C15.455 11.6785 8.19881 7.75873 3.34169 1.80201C2.494 3.2561 2.00824 4.94726 2.00824 6.75167C2.00824 10.1676 3.74681 13.1811 6.38921 14.9466C4.77497 14.8955 3.25648 14.4526 1.9288 13.7152C1.92768 13.7562 1.92768 13.7975 1.92768 13.839C1.92768 18.6092 5.32225 22.5883 9.8273 23.4933C9.00098 23.7184 8.13097 23.8386 7.23289 23.8386C6.59833 23.8386 5.98154 23.7767 5.3801 23.662C6.63338 27.5734 10.2701 30.4199 14.5795 30.4991C11.2092 33.14 6.96313 34.714 2.34913 34.714C1.55424 34.714 0.770402 34.6673 0 34.5763C4.35817 37.37 9.5345 39 15.0958 39C33.2093 39 43.1149 23.9977 43.1149 10.9867C43.1149 10.5599 43.1053 10.1354 43.0863 9.71286C45.0102 8.325 46.6798 6.59114 48 4.6166Z" fill="#2AA9E0"/>
</g>
<defs>
<clipPath id="clip0_2_77">
<rect width="48" height="39" fill="white"/>
</clipPath>
</defs>
</svg>
